<?xml version="1.0" standalone="no"?>
<!DOCTYPE svg PUBLIC "-//W3C//DTD SVG 20010904//EN"
 "http://www.w3.org/TR/2001/REC-SVG-20010904/DTD/svg10.dtd">
<svg version="1.0" xmlns="http://www.w3.org/2000/svg"
 width="700.000000pt" height="700.000000pt" viewBox="0 0 700.000000 700.000000"
 preserveAspectRatio="xMidYMid meet">
<metadata>
Created by potrace 1.14, written by Peter Selinger 2001-2017
</metadata>
<g transform="translate(0.000000,700.000000) scale(0.100000,-0.100000)"
fill="#000000" stroke="none">
<path d="M3378 6945 c-2 -1 -55 -5 -118 -9 -63 -4 -126 -9 -140 -11 -14 -2
-52 -6 -85 -10 -33 -3 -67 -8 -75 -10 -8 -3 -31 -7 -50 -10 -504 -80 -1053
-318 -1485 -644 -251 -189 -547 -489 -706 -715 -19 -27 -47 -67 -63 -90 -113
-159 -264 -439 -344 -636 -96 -237 -186 -551 -208 -725 -3 -22 -7 -47 -9 -55
-6 -19 -23 -163 -32 -265 -13 -158 -7 -510 13 -660 21 -159 54 -340 88 -475
56 -224 173 -521 293 -747 91 -173 294 -478 375 -564 7 -8 37 -44 67 -79 75
-90 268 -280 376 -371 337 -284 712 -495 1135 -639 100 -34 367 -104 435 -114
22 -4 65 -11 95 -16 52 -9 100 -16 180 -25 204 -24 584 -24 760 0 14 2 48 6
75 9 441 54 920 221 1313 460 73 45 141 86 150 91 34 20 219 160 291 219 96
79 319 300 405 400 431 503 699 1096 800 1776 29 194 41 591 22 743 -3 27 -8
76 -11 110 -5 55 -36 252 -50 317 -3 14 -7 36 -10 50 -2 14 -23 91 -45 172
-73 268 -184 535 -329 791 -35 63 -179 287 -190 297 -4 3 -32 40 -64 82 -137
185 -364 420 -557 577 -90 73 -89 72 -145 111 -27 19 -52 38 -55 41 -10 10
-95 67 -188 123 -143 87 -316 174 -497 251 -151 65 -497 167 -641 189 -21 4
-64 11 -94 16 -30 5 -75 12 -100 15 -25 3 -56 8 -70 10 -88 13 -501 29 -512
20z"/>
</g>
</svg>
